<?xml version="1.0" encoding="UTF-8"?>
<svg id="Layer_2" data-name="Layer 2" xmlns="http://www.w3.org/2000/svg" viewBox="0 0 318.38 192.24">
  <defs>
    <style>
      .cls-1 {
        letter-spacing: .04em;
      }

      .cls-2 {
        letter-spacing: .05em;
      }

      .cls-3 {
        letter-spacing: .07em;
      }

      .cls-4 {
        letter-spacing: .04em;
      }

      .cls-5 {
        font-family: Outfit-Bold, Outfit;
        font-size: 22.67px;
        font-weight: 700;
      }

      .cls-6 {
        letter-spacing: 0em;
      }

      .cls-7 {
        letter-spacing: .05em;
      }

      .cls-8 {
        letter-spacing: .02em;
      }

      .cls-9 {
        letter-spacing: .05em;
      }
    </style>
  </defs>
  <g id="Layer_1-2" data-name="Layer 1">
    <g>
      <rect y="137.52" width="318.38" height="3.01"/>
      <text class="cls-5" transform="translate(24.01 183.24)"><tspan class="cls-2" x="0" y="0">Pure </tspan><tspan class="cls-1" x="58.93" y="0">L</tspan><tspan class="cls-2" x="72.63" y="0">u</tspan><tspan class="cls-4" x="85.98" y="0">x</tspan><tspan class="cls-9" x="99.02" y="0">u</tspan><tspan class="cls-3" x="112.37" y="0">r</tspan><tspan class="cls-8" x="123.92" y="0">y</tspan><tspan class="cls-7" x="136.41" y="0">,</tspan><tspan class="cls-2" x="143.94" y="0" xml:space="preserve"> Pu</tspan><tspan class="cls-7" x="178.11" y="0">r</tspan><tspan class="cls-2" x="189.29" y="0">ely </tspan><tspan class="cls-6" x="228.58" y="0">Y</tspan><tspan class="cls-2" x="243.95" y="0">o</tspan><tspan x="258.15" y="0">u</tspan></text>
      <g>
        <polygon points="69.11 13.81 71.59 13.81 78.25 27.24 84.78 13.81 87.25 13.81 87.25 30.51 84.78 30.51 84.78 18.82 79.08 30.51 77.43 30.51 71.59 18.82 71.59 30.51 69.11 30.51 69.11 13.81"/>
        <path d="M101.64,26.01h-6.66l-1.57,4.5h-2.59l5.94-16.7h3.12l5.97,16.7h-2.58l-1.62-4.5ZM100.98,23.99l-2.69-7.49-2.64,7.49h5.33Z"/>
        <path d="M122.74,22.07l.43,8.44h-2.02l-.4-3.54c-.9,2.34-2.88,3.81-5.65,3.81-4.77,0-7.67-3.46-7.67-8.52s3.06-8.71,8.23-8.71c3.62,0,6.26,1.65,7.33,4.74l-2.18.91c-.99-2.18-2.53-3.44-5.19-3.44-3.7,0-5.7,2.64-5.7,6.5s1.92,6.39,5.54,6.39c3.06,0,4.93-1.65,5.09-4.85h-4.87v-1.73h7.09Z"/>
        <polygon points="127.51 30.51 127.51 13.81 129.78 13.81 139.55 26.38 139.55 13.81 142.03 13.81 142.03 30.51 139.77 30.51 129.99 17.94 129.99 30.51 127.51 30.51"/>
        <path d="M155.19,13.52c4.93,0,8.92,3.49,8.92,8.63s-4,8.63-8.92,8.63-9-3.49-9-8.63,4.08-8.63,9-8.63M161.74,22.18c0-3.73-2.8-6.39-6.55-6.39s-6.63,2.66-6.63,6.39,2.9,6.37,6.63,6.37,6.55-2.66,6.55-6.37"/>
        <polygon points="168.46 30.51 168.46 13.81 170.94 13.81 170.94 28.41 180.05 28.41 180.05 30.51 168.46 30.51"/>
        <rect x="183.96" y="13.81" width="2.48" height="16.7"/>
        <path d="M201.07,26.01h-6.66l-1.57,4.5h-2.59l5.94-16.7h3.12l5.97,16.7h-2.58l-1.62-4.5ZM200.4,23.99l-2.69-7.49-2.64,7.49h5.33Z"/>
        <path d="M109.29,74.09c0,21.7-12.04,35.21-29.76,35.21-15.22,0-25.67-8.4-25.67-20.45,0-10.68,10.34-16.81,19.65-16.81,12.15,0,17.49,7.38,17.49,14.31,0,7.27-4.88,12.61-12.04,12.27-3.52-.23-8.63-2.38-8.63-6.81,0-1.59,1.25-2.73,2.73-2.73s2.73,1.14,2.73,2.73c0,1.48-1.25,2.61-2.73,2.61-.34,0-.57,0-.91-.12,1.02.91,2.61,2.05,4.66,2.05,4.54-.23,6.59-5.79,6.59-11.13,0-4.77-2.39-12.15-9.88-12.15-6.48,0-10.79,6.93-10.79,15.22s5,19.88,16.93,19.88c10.22,0,20.22-12.04,20.22-34.19,0-17.15-8.18-32.26-24.65-32.26-12.61,0-22.49,9.31-22.04,18.86.23,5.34,4.2,10.79,10.34,9.43,2.27-.34,4.09-2.04,4.54-3.86-.57.34-.91.45-1.48.45-1.25,0-2.38-1.02-2.38-2.27s1.14-2.27,2.38-2.27,2.27.91,2.27,2.27c.23,3.75-3.52,9.2-10,9.43-9.66.23-14.43-7.84-13.52-14.54,1.48-11.59,17.04-18.63,29.88-18.63,21.81,0,34.08,14.99,34.08,33.51M79.53,70.11h-10.11s1.48-1.02,1.48-3.52v-20.9h8.63v24.42Z"/>
        <path d="M141.77,83.07s-2.73,8.41-12.04,8.41-16.36-7.27-16.36-16.24c0-10,6.82-16.93,15.79-16.93,12.04,0,13.97,12.15,13.97,13.97l-21.81,3.52c.91,5.79,5.34,11.7,12.27,11.7,4.66,0,8.18-4.43,8.18-4.43M121.1,74.66l14.88-2.39c-1.36-7.5-4.54-13.29-9.2-12.72-6.48.91-5.79,11.93-5.68,15.11"/>
        <path d="M157.79,90.9h-11.7s1.48-1.02,1.48-3.63v-40.33c0-2.61-1.48-3.63-1.48-3.63h10.11v43.96c0,2.61,1.59,3.63,1.59,3.63"/>
        <path d="M173.58,90.9h-11.7s1.48-1.02,1.48-3.64v-24.99c0-2.61-1.48-3.64-1.48-3.64h10.11v28.62c0,2.61,1.59,3.64,1.59,3.64M167.67,55.12c-2.39,0-4.32-1.93-4.32-4.32s1.93-4.32,4.32-4.32,4.32,1.93,4.32,4.32-1.82,4.32-4.32,4.32"/>
        <path d="M206.18,109.65c-2.73,3.07-8.18,4.32-12.84,3.86-11.47-1.14-28.74-10.91-39.3-10.91-6.82,0-10.45,3.41-10.68,6.59.34-.34.91-1.14,2.05-1.14,1.25,0,2.27,1.02,2.27,2.27,0,1.36-1.02,2.39-2.27,2.39-1.82,0-2.73-1.59-2.95-2.73-.68-2.95-.11-13.86,12.95-14.77,15.45-1.02,34.31,15.45,44.87,15.45,1.93,0,3.64-.57,4.88-1.93,7.04-7.39-25.22-10-25.22-19.31,0-1.7.8-3.52,3.98-4.66-3.75-2.73-6.13-6.93-6.13-11.7,0-5.23,3.07-9.88,7.61-12.5,1.48-1.93,7.84-10,16.02-10,1.48,0,2.95.23,4.43.8l-2.05,6.02s-3.52-1.93-7.84-1.93-6.47,1.48-9.32,4.32c2.16-.91,4.54-1.36,6.93-1.36,8.86,0,15.9,6.59,15.9,14.65s-7.04,14.77-15.79,14.77c-3.63,0-6.82-1.25-8.97-2.5-1.59.68-3.98,2.73-1.14,5.11,2.95,1.82,7.73,3.41,13.18,3.41,2.16,0,4.43-.23,6.7-.8,6.25-1.48,7.72,11.13,2.73,16.59M196.41,86.47c4.32-.79,6.7-7.38,5.11-14.88-1.48-7.39-6.25-12.84-10.68-12.04-4.32.8-6.7,7.5-5.11,14.99,1.47,7.38,6.25,12.72,10.68,11.93"/>
        <path d="M250.82,108.28c-9.54,0-14.77-6.59-14.77-17.15v-24.88c0-3.75-2.61-6.02-5.79-6.02s-6.59,2.73-6.59,4.66v22.38c0,2.61,1.59,3.63,1.59,3.63h-11.7s1.48-1.02,1.48-3.63v-40.33c0-2.61-1.48-3.64-1.48-3.64h10.11v19.43c1.59-2.5,5.45-4.43,9.31-4.43,7.39,0,11.7,4.43,11.7,11.13,0,0,.11,20.11.11,21.7,0,7.84,2.05,14.43,9.2,14.43,4.88,0,6.93-3.86,7.27-5.34-.23,0-.57.11-.79.11-1.25,0-2.38-1.02-2.38-2.27s1.14-2.27,2.38-2.27,2.27,1.02,2.27,2.27c0,2.84-1.93,10.22-11.93,10.22"/>
        <path d="M262.29,59.89v22.04c0,9.32,6.02,9.09,6.02,9.09,0,0-1.93.57-4.32.57-4.43,0-10.45-1.71-10.45-11.36v-20.33h-3.29v-1.14h2.95c7.04,0,7.16-15.22,8.63-15.22h.46v15.22h6.02v1.14h-6.02Z"/>
        <path d="M248.46,45.49c.26.07.51.1.74.05,2.06-.4,3.81-1.42,5.39-2.76.16-.14.22-.4.33-.6-.05-.03-.09-.05-.14-.08-2.11,1.13-4.21,2.26-6.32,3.39"/>
        <path d="M246.67,11.81c-1.27,1.51-2.26,3.19-2.89,5.05-.81,2.38-1.17,4.84-1.21,7.36-.04,2.58.14,5.15.51,7.69.24,1.66.65,3.29.98,4.93.12.58.2,1.17.32,1.84.55-.9.97-1.72,1.15-2.66.17-.92.35-1.84.61-2.74,1.19-4.07,3.13-7.71,6.12-10.75,1.54-1.56,2.96-3.22,3.94-5.2,1.12-2.24,1.84-4.58,1.62-7.11-.15-1.72-.4-3.43-.61-5.19-.1.02-.22.03-.32.08-1.04.46-2.09.91-3.11,1.4-2.72,1.3-5.17,2.96-7.12,5.29"/>
        <path d="M230.32,26.56c1.9,1.01,3.82,1.99,5.66,3.12,2.11,1.3,3.86,3,5.05,5.23.49.91,1.03,1.8,1.55,2.7.03,0,.05-.01.08-.02,0-.08,0-.15-.02-.22-.42-1.74-.81-3.49-1.27-5.23-1.15-4.39-2.58-8.67-5.15-12.49-1.44-2.14-3.2-4-5.2-5.61-2.45-1.98-5.3-3.2-8.3-4.1-.2-.06-.41-.07-.68-.11-.03.91-.07,1.75-.09,2.58-.08,2.94.61,5.69,2.08,8.24,1.5,2.61,3.65,4.52,6.3,5.91"/>
        <path d="M253.73,23.33c-1.28,1.61-2.61,3.19-3.78,4.88-1.34,1.93-1.99,4.19-2.76,6.38-.05.14-.04.31-.06.46.05.02.1.04.16.05.14-.18.29-.36.41-.55,1.02-1.73,2.41-3.11,4-4.29,1.45-1.07,2.97-2,4.79-2.36,1.85-.36,3.69-.74,5.45-1.47,3.82-1.57,6.47-4.21,7.69-8.21.37-1.23.47-2.47.32-3.74-.05-.42-.26-.55-.66-.52-1.95.13-3.88.27-5.74.94-2.8,1.01-5.18,2.55-6.97,4.99-.87,1.19-1.91,2.27-2.83,3.43"/>
        <path d="M273.14,26.34c-.17.08-.23.1-.28.14-.16.12-.32.24-.48.38-1.52,1.27-3.28,2.05-5.2,2.42-1.7.32-3.42.23-5.14.11-1.57-.1-3.14-.18-4.7.19-2.92.68-5.39,2.1-7.36,4.36-1.04,1.19-1.96,2.47-2.98,3.67-.7.83-1.41,1.68-2.24,2.37-.64.53-1,.99-1.06,1.88-.17,2.61-1.09,4.99-2.7,7.07-.43.56-1,1.01-1.51,1.51,0-.02,0-.03,0-.04-1.17,1.39-2.6,2.48-4.04,3.62-.07.06-.17.13-.26.19.74.09,1.44.23,2.1.42l1.1-.84c2.59-1.77,4.73-3.96,5.97-6.87.69-1.62,1.13-3.33,1.69-5,.1-.31.22-.63.4-.89.6-.82,1.24-1.6,1.84-2.42,1-1.35,2.2-2.43,3.84-2.93,1.5-.46,3.02-.43,4.54-.11,2.04.43,4.08.71,6.17.4,2.41-.36,4.63-1.15,6.51-2.74,1.9-1.62,3.32-3.55,3.77-6.07.04-.23,0-.48,0-.8"/>
        <path d="M241.11,26.71c.04.16.11.32.17.47.07-.32.11-.62.07-.91-.39-2.44-.38-4.88.04-7.31.39-2.25,1.17-4.36,2.38-6.31,1.06-1.69,2.51-3.02,4.01-4.3.11-.1.21-.36.16-.49-.46-1.08-.88-2.2-1.73-3.03-1.36-1.33-2.8-2.58-4.2-3.86-.38-.34-.76-.67-1.09-.96-.69.91-1.32,1.77-1.98,2.62-1.38,1.79-2.65,3.66-3.2,5.88-.31,1.28-.43,2.62-.45,3.94-.03,1.85.23,3.6,1.47,5.17,2.12,2.69,3.49,5.79,4.36,9.1"/>
        <path d="M239.64,38.08c.61.69,1.15,1.44,1.75,2.14.26.3.61.54.91.8.04-.03.09-.06.13-.09,0-.15.06-.31.02-.44-.14-.54-.2-1.14-.48-1.59-1.01-1.61-2.07-3.19-3.16-4.75-.36-.52-.83-.98-1.31-1.4-3.19-2.71-6.94-3.7-11.05-3.57-1.39.05-2.78.11-4.17.11-2.18,0-4.18-.66-6.02-1.8-.54-.33-1.01-.76-1.65-1.24.02.37,0,.6.06.82.44,1.76,1.35,3.27,2.56,4.57,2.93,3.15,6.69,4.38,10.89,4.31,1.38-.02,2.75-.38,4.13-.49,2.83-.21,5.42.37,7.39,2.62"/>
        <path d="M219.07,24.82c1.66,1.38,3.58,2.22,5.7,2.53,1.27.18,2.57.2,3.85.3,0-.06.02-.12.03-.19-.58-.35-1.2-.64-1.75-1.04-2.6-1.92-4.43-4.41-5.5-7.46-.11-.31-.28-.44-.58-.51-1.06-.25-2.11-.55-3.18-.78-.8-.18-1.61-.29-2.51-.44.06.42.09.77.16,1.12.47,2.62,1.72,4.79,3.77,6.49"/>
        <path d="M258.38,40.42c-1.86-.16-3.74-.29-5.57.19-2.63.68-4.4,2.36-5.44,4.85-.2.48-.53.91-.82,1.35-.14.21-.32.39-.49.59.03.03.05.07.07.1.3-.12.61-.22.88-.38.75-.43,1.54-.55,2.39-.44.76.1,1.52.18,2.28.21,1.4.07,2.7-.29,3.79-1.19,1.59-1.3,2.5-3.04,3.11-4.96.03-.08-.12-.32-.21-.33M254.59,42.78c-1.58,1.34-3.33,2.36-5.39,2.76-.23.04-.48.02-.74-.05,2.11-1.13,4.21-2.26,6.32-3.39.05.03.09.05.14.08-.11.2-.17.46-.33.6"/>
        <path d="M239.5,50.17s0,0,0,0c0,.01,0,.03,0,.04,0-.01,0-.03,0-.04"/>
        <path d="M234.26,47.8c.91.31,1.9.4,2.87.53.56.08.98.25,1.18.82.09.26.24.51.37.76.18.36.44.52.82.27.21-.75-3.61-4.13-4.77-5.16-.34-.3-.6-.68-.9-1.02.03-.03.07-.07.1-.1,1.95.86,3.64,2.12,5.21,3.63,0-.67-.05-1.28-.22-1.87-.61-2.04-2.13-3.26-3.94-4.15-1.71-.83-3.6-.95-5.46-1.1-.41-.03-.44.23-.32.52.45,1.1.85,2.22,1.38,3.27.82,1.6,1.93,3,3.7,3.6"/>
      </g>
    </g>
  </g>
</svg>